<svg xmlns="http://www.w3.org/2000/svg" viewBox="0 0 100 100">
	<style>
		.fill {
			fill: #000000;
			stroke: none;
		}

		.stroke {
			stroke: black;
			fill: none;
		}

		@media (prefers-color-scheme: dark) {
			.fill {
				fill: #000000;
				stroke: none;
			}

			.stroke {
				stroke: black;
				fill: none;
			}
		}
	</style>

	<g class="fill">
		<path d="M34.8,4.6h-9.7c-0.6,0-1.1,0.5-1.1,1.1v64.4c0,0.6,0.5,1.1,1.1,1.1h9.7c0.6,0,1.1-0.5,1.1-1.1V5.7
		C35.9,5.1,35.4,4.6,34.8,4.6L34.8,4.6z" />
		<circle cx="55" cy="19.6" r="1.5" />
		<path d="M50,65.4c-2.2,0-4,1.8-4,4s1.8,4,4,4s4-1.8,4-4S52.2,65.4,50,65.4L50,65.4z" />
	</g>

	<g class="stroke">
		<circle stroke-width="12" cx="50" cy="69.4" r="20" />
		<circle stroke-width="6" cx="55" cy="19.6" r="10" />
	</g>
</svg>